<svg width="400" height="400" xmlns="http://www.w3.org/2000/svg">
  <defs>
    <linearGradient id="sky" x1="0%" y1="0%" x2="0%" y2="100%">
      <stop offset="0%" style="stop-color:#87CEEB;stop-opacity:1" />
      <stop offset="100%" style="stop-color:#E0F6FF;stop-opacity:1" />
    </linearGradient>
    <linearGradient id="mountain" x1="0%" y1="0%" x2="0%" y2="100%">
      <stop offset="0%" style="stop-color:#8B7355;stop-opacity:1" />
      <stop offset="100%" style="stop-color:#654321;stop-opacity:1" />
    </linearGradient>
    <linearGradient id="grass" x1="0%" y1="0%" x2="0%" y2="100%">
      <stop offset="0%" style="stop-color:#90EE90;stop-opacity:1" />
      <stop offset="100%" style="stop-color:#32CD32;stop-opacity:1" />
    </linearGradient>
  </defs>
  
  <!-- Sky -->
  <rect width="400" height="200" fill="url(#sky)"/>
  
  <!-- Mountains -->
  <polygon points="0,200 100,80 200,200" fill="url(#mountain)"/>
  <polygon points="150,200 250,60 350,200" fill="url(#mountain)"/>
  <polygon points="300,200 400,100 400,200" fill="url(#mountain)"/>
  
  <!-- Grass -->
  <rect y="200" width="400" height="200" fill="url(#grass)"/>
  
  <!-- Sun -->
  <circle cx="320" cy="80" r="25" fill="#FFD700"/>
  
  <!-- Clouds -->
  <ellipse cx="80" cy="60" rx="20" ry="12" fill="white" opacity="0.8"/>
  <ellipse cx="95" cy="55" rx="15" ry="10" fill="white" opacity="0.8"/>
  <ellipse cx="110" cy="60" rx="18" ry="11" fill="white" opacity="0.8"/>
  
  <!-- Trees -->
  <rect x="50" y="180" width="8" height="40" fill="#8B4513"/>
  <circle cx="54" cy="170" r="15" fill="#228B22"/>
  
  <rect x="300" y="190" width="6" height="30" fill="#8B4513"/>
  <circle cx="303" cy="185" r="12" fill="#228B22"/>
</svg>